<?xml version="1.0" encoding="UTF-8" standalone="no"?>
<!-- Created with Inkscape (http://www.inkscape.org/) -->

<svg
   width="127.00999mm"
   height="119.15929mm"
   viewBox="0 0 127.00999 119.15929"
   version="1.1"
   id="svg1"
   inkscape:export-filename="Icon_128.png"
   inkscape:export-xdpi="25.597986"
   inkscape:export-ydpi="25.597986"
   inkscape:version="1.4.3 (0d15f75042, 2025-12-25)"
   sodipodi:docname="icon.svg"
   xmlns:inkscape="http://www.inkscape.org/namespaces/inkscape"
   xmlns:sodipodi="http://sodipodi.sourceforge.net/DTD/sodipodi-0.dtd"
   xmlns="http://www.w3.org/2000/svg"
   xmlns:svg="http://www.w3.org/2000/svg">
  <sodipodi:namedview
     id="namedview1"
     pagecolor="#505050"
     bordercolor="#eeeeee"
     borderopacity="1"
     inkscape:showpageshadow="0"
     inkscape:pageopacity="0"
     inkscape:pagecheckerboard="0"
     inkscape:deskcolor="#505050"
     inkscape:document-units="mm"
     inkscape:zoom="0.43829966"
     inkscape:cx="349.07625"
     inkscape:cy="933.15153"
     inkscape:window-width="1270"
     inkscape:window-height="1391"
     inkscape:window-x="0"
     inkscape:window-y="0"
     inkscape:window-maximized="1"
     inkscape:current-layer="layer1">
    <inkscape:page
       x="0"
       y="0"
       width="127.00999"
       height="119.15929"
       id="page1"
       margin="15.879999"
       bleed="0" />
  </sodipodi:namedview>
  <defs
     id="defs1" />
  <g
     inkscape:label="Layer 1"
     inkscape:groupmode="layer"
     id="layer1"
     transform="translate(-56.551205,-92.959932)">
    <g
       id="g96"
       transform="matrix(0.29531664,0,0,0.29531664,41.583305,10.401437)"
       inkscape:export-filename="HostLinkLogo.png"
       inkscape:export-xdpi="96"
       inkscape:export-ydpi="96">
      <path
         d="m 322.48633,388.79102 v -53.78907 l -26.71094,22.94336 c -20.54328,-15.77758 -45.92352,-24.59484 -72.37305,-24.61328 -65.69214,-1.7e-4 -118.94603,53.25372 -118.94531,118.94531 0.0573,27.06793 9.34537,53.30675 26.33008,74.38282 l -4.53906,49.21093 46.11718,-16.4082 c 7.27944,2.75728 50.46436,15.42676 74.67774,7.19336 6.29449,-10.90237 7.3326,-13.12549 14.86719,-26.17578 -22.25853,7.80557 -51.76123,11.16712 -85.47266,-7.26172 l -24,8.53711 2.37891,-25.79883 c -16.08256,-17.30686 -25.02751,-40.054 -25.04102,-63.67969 -3.8e-4,-51.7087 41.91798,-93.62706 93.62695,-93.62695 40.62973,0.12896 61.66594,21.75502 71.61914,37.55859 l 0.15625,0.0918 c 1.79308,-0.91919 4.0965,-1.95715 6.79102,-2.96484 5.21811,-1.95147 11.90116,-3.79068 19.17578,-4.43946 0.4449,-0.0397 0.89264,-0.075 1.3418,-0.10546 z"
         style="display:inline;fill:#253956;stroke-width:25.9607"
         id="path57"
         inkscape:export-filename="HostLinkIcon.png"
         inkscape:export-xdpi="96"
         inkscape:export-ydpi="96" />
      <path
         d="m 288.61719,415.20703 19.93164,17.11914 c 55.22925,-17.23547 93.10208,32.13149 93.125,71.97266 -2.1e-4,24.55096 -9.64381,48.11951 -26.85352,65.6289 l 2.32813,25.24219 -24.31446,-8.65039 c -13.74132,7.48491 -29.13947,11.40647 -44.78711,11.40625 -22.28127,-0.0707 -43.99053,-4.60091 -60.89257,-19.11914 -7.98257,1.75285 -16.12455,2.67832 -24.29688,2.76172 -2.88939,-0.0836 -5.77477,-0.27256 -8.65039,-0.56641 22.52361,28.83616 57.24956,42.21668 93.83984,42.24219 16.83751,-1.8e-4 33.48313,-3.57508 48.83594,-10.48828 l 46.45508,16.52734 -4.44531,-48.20508 c 18.14477,-21.4688 28.09981,-48.66992 28.09961,-76.77929 -0.1285,-60.58424 -60.56213,-127.35502 -138.375,-89.0918 z"
         style="fill:#87bfb3;stroke-width:25.9607"
         id="path55" />
      <circle
         style="display:none;fill:#83b75b;fill-opacity:1;stroke:none;stroke-width:22.6772;stroke-dasharray:none;stroke-opacity:1"
         id="path42"
         cx="359.25562"
         cy="350.23627"
         r="17.147339" />
      <path
         id="rect42"
         style="fill:#83b75b;fill-opacity:1;stroke:none;stroke-width:22.6772;stroke-dasharray:none;stroke-opacity:1"
         d="m 199.67968,449.49128 v 19.44531 H 219.125 v -19.44531 z m 25.44532,0 v 19.44531 h 19.44531 v -19.44531 z m -25.44532,25.44531 V 494.3819 H 219.125 v -19.44531 z m 25.44532,0 v 19.44531 h 19.44531 v -19.44531 z" />
      <path
         d="m 222.125,391.25781 -79.81836,68.5586 V 460 h 24.0451 v 36.86328 c 0,4.64624 3.39973,8.38672 7.62271,8.38672 h 3.9303 c 4.22297,0 7.6227,-3.74048 7.6227,-8.38672 V 460 h 0.002 v -10.55859 l 36.59577,-31.43555 36.59576,31.43555 v 7.63671 c -9.1e-4,0.061 -0.002,0.12223 -0.002,0.1836 v 39.60156 c 0,4.64624 3.39974,8.38672 7.62272,8.38672 h 3.93029 c 4.22298,0 7.62271,-3.74048 7.62271,-8.38672 V 460 h 24.04865 v -0.18359 z"
         style="fill:#253956;fill-opacity:1;stroke-width:21.6196"
         id="path53" />
      <g
         id="g55"
         transform="translate(-201.07575,-24.304819)"
         style="fill:#87bfb3;fill-opacity:1;stroke:none;stroke-width:3.77953;stroke-dasharray:none;stroke-opacity:1">
        <rect
           style="fill:#87bfb3;fill-opacity:1;stroke:none;stroke-width:3.38051;stroke-dasharray:none;stroke-opacity:1"
           id="rect54"
           width="69.688004"
           height="15.5"
           x="502.16272"
           y="503.1875"
           rx="6" />
        <rect
           style="fill:#87bfb3;fill-opacity:1;stroke:none;stroke-width:3.38051;stroke-dasharray:none;stroke-opacity:1"
           id="rect54-7"
           width="83.625999"
           height="15.5"
           x="488.22513"
           y="530.6875"
           rx="6" />
        <rect
           style="fill:#87bfb3;fill-opacity:1;stroke:none;stroke-width:3.38051;stroke-dasharray:none;stroke-opacity:1"
           id="rect54-7-0"
           width="100.35072"
           height="15.5"
           x="471.5"
           y="558.1875"
           rx="6" />
      </g>
    </g>
  </g>
</svg>
