<svg xmlns="http://www.w3.org/2000/svg" preserveAspectRatio="xMidYMid" viewBox="0 0 1588.642 415.951">
  <path d="M322.486 388.791v-53.789l-26.71 22.943a118.95 118.95 0 0 0-72.374-24.613c-65.692 0-118.946 53.254-118.945 118.945a118.94 118.94 0 0 0 26.33 74.383l-4.539 49.211 46.117-16.408c7.28 2.757 50.465 15.427 74.678 7.193 6.294-10.902 7.333-13.125 14.867-26.176-22.258 7.806-51.761 11.168-85.473-7.261l-24 8.537 2.38-25.799a93.63 93.63 0 0 1-25.042-63.68c0-51.708 41.918-93.627 93.627-93.627 40.63.13 61.666 21.755 71.62 37.559l.156.092c1.793-.92 4.096-1.957 6.79-2.965 5.219-1.952 11.902-3.79 19.177-4.44q.667-.06 1.341-.105" style="display:inline;fill:#253956;stroke-width:25.9607" transform="translate(-44.457 -273.332)"/>
  <path d="m288.617 415.207 19.932 17.12c55.23-17.236 93.102 32.13 93.125 71.972a93.63 93.63 0 0 1-26.854 65.629l2.328 25.242-24.314-8.65a93.6 93.6 0 0 1-44.787 11.406c-22.281-.07-43.99-4.601-60.893-19.12a119 119 0 0 1-24.297 2.762q-4.335-.125-8.65-.566c22.524 28.836 57.25 42.217 93.84 42.242 16.837 0 33.483-3.575 48.836-10.488l46.455 16.527-4.445-48.205a118.94 118.94 0 0 0 28.1-76.78c-.13-60.583-60.563-127.354-138.376-89.091" style="fill:#87bfb3;stroke-width:25.9607" transform="translate(-44.457 -273.332)"/>
  <path d="M199.68 449.491v19.446h19.445V449.49zm25.445 0v19.446h19.445V449.49zm-25.445 25.446v19.445h19.445v-19.445zm25.445 0v19.445h19.445v-19.445z" style="fill:#83b75b;fill-opacity:1;stroke:none;stroke-width:22.6772;stroke-dasharray:none;stroke-opacity:1" transform="translate(-44.457 -273.332)"/>
  <path d="m222.125 391.258-79.818 68.558V460h24.045v36.863c0 4.647 3.4 8.387 7.622 8.387h3.93c4.224 0 7.623-3.74 7.623-8.387V460h.002v-10.559l36.596-31.435 36.596 31.435v7.637l-.002.184v39.601c0 4.647 3.4 8.387 7.623 8.387h3.93c4.223 0 7.623-3.74 7.623-8.387V460h24.048v-.184z" style="fill:#253956;fill-opacity:1;stroke-width:21.6196" transform="translate(-44.457 -273.332)"/>
  <g style="fill:#87bfb3;fill-opacity:1;stroke:none;stroke-width:3.77953;stroke-dasharray:none;stroke-opacity:1" transform="translate(-245.533 -297.637)">
    <rect width="69.688" height="15.5" x="502.163" y="503.188" rx="6" style="fill:#87bfb3;fill-opacity:1;stroke:none;stroke-width:3.38051;stroke-dasharray:none;stroke-opacity:1"/>
    <rect width="83.626" height="15.5" x="488.225" y="530.688" rx="6" style="fill:#87bfb3;fill-opacity:1;stroke:none;stroke-width:3.38051;stroke-dasharray:none;stroke-opacity:1"/>
    <rect width="100.351" height="15.5" x="471.5" y="558.188" rx="6" style="fill:#87bfb3;fill-opacity:1;stroke:none;stroke-width:3.38051;stroke-dasharray:none;stroke-opacity:1"/>
  </g>
  <path d="M645.016 541.994h-19.2v-57.6h-93.888v-19.2h93.888v-57.6h19.2zm-122.688 0h-19.2v-134.4h19.2zm315.456-67.2q0 14.016-4.416 26.304-4.416 12.096-12.672 21.312-8.064 9.216-19.392 14.4t-25.152 5.184h-44.736q-14.016 0-25.344-5.184t-19.584-14.4q-8.064-9.216-12.48-21.312-4.416-12.288-4.416-26.304 0-13.824 4.416-25.92 4.416-12.288 12.48-21.504 8.256-9.408 19.584-14.592t25.344-5.184h44.736q13.824 0 25.152 5.184t19.392 14.592q8.256 9.216 12.672 21.504 4.416 12.096 4.416 25.92m-19.2 0q0-13.248-5.184-24.192-4.992-10.944-14.592-17.28-9.408-6.528-22.656-6.528h-44.736q-13.248 0-22.848 6.528-9.408 6.336-14.592 17.28t-5.184 24.192 5.184 24.192q5.184 10.752 14.592 17.28 9.6 6.528 22.848 6.528h44.736q13.248 0 22.656-6.528 9.6-6.528 14.592-17.28 5.184-10.944 5.184-24.192m192.192 28.8q0 10.56-5.184 19.392-5.184 8.64-13.824 13.824t-19.392 5.184H855.64v-19.2h116.736q8.064 0 13.632-5.568 5.568-5.76 5.568-13.632t-5.568-13.44q-5.568-5.76-13.632-5.76H894.04q-10.56 0-19.392-5.184-8.64-5.184-13.824-13.824-5.184-8.832-5.184-19.392t5.184-19.2q5.184-8.832 13.824-14.016 8.832-5.184 19.392-5.184h107.136v19.2H894.04q-7.872 0-13.632 5.76-5.568 5.568-5.568 13.44t5.568 13.632q5.76 5.568 13.632 5.568h78.336q10.752 0 19.392 5.184t13.824 14.016q5.184 8.64 5.184 19.2" aria-label="HOS" style="fill:#253956;stroke-width:3.77953" transform="translate(-93.246 -334.024)"/>
  <path d="M1252.48 676.406h-19.2v-134.4h19.2zm51.455 0h-19.2v-134.4h9.6q14.016 0 30.336 5.376 16.512 5.376 33.024 15.168t31.104 23.424q14.784 13.44 25.344 29.952v-73.92h19.2v134.4h-19.2q0-17.664-7.296-33.792-7.104-16.32-19.008-29.952-11.904-13.824-26.496-24.384-14.4-10.752-29.376-17.472-14.976-6.912-28.032-8.832zm317.952 0h-25.92l-68.544-69.12-42.624 30.72v38.4h-19.2v-134.4h19.2v74.88l105.408-74.88h28.032l-76.224 54.72z" aria-label="INK" style="fill:#87bfb3;stroke-width:3.77953" transform="translate(-93.246 -334.024)"/>
  <path d="M1031.072 130.3c-2.61-2.574-6.023-4.753-9.767-4.753-3.586 0-6.87 2.051-9.434 4.433v33.295h4.936V140.73h8.996v22.546h5.27zM943.904 32v19.2h67.967v64.63a17.4 17.4 0 0 1 9.434-2.762 17.4 17.4 0 0 1 9.767 2.983V51.199h67.967V32Z" style="fill:#253956;stroke-width:3.77953" transform="translate(-18.136 41.57)"/>
  <path d="M1031.059 216.764a17.4 17.4 0 0 1-9.754 2.974 17.4 17.4 0 0 1-9.446-2.771v83.838h128.448v-19.2h-109.248zm-5.256-47.233v22.545h-8.996v-22.545h-4.948v33.283c2.567 2.39 5.854 4.446 9.446 4.446 3.738 0 7.145-2.175 9.754-4.742V169.53z" style="fill:#87bfb3;stroke-width:3.77953" transform="translate(-18.136 41.57)"/>
  <path d="M1103.13 806.032h64.873c21.399 0 40.108-10.91 50.725-27.401 5.874-9.125 9.273-19.96 9.273-31.604 0-12.087-3.66-23.3-9.953-32.636-10.725-15.91-29.097-26.362-50.045-26.362h-64.873v9.195h58.736c17.14 0 32.45 6.639 42.811 17.167 8.59 8.73 13.776 20.129 13.776 32.636 0 12.02-4.786 23.017-12.782 31.604-10.362 11.126-26.11 18.206-43.805 18.206h-58.736z" style="display:inline;fill:#87bfb3;stroke-width:3.77953" transform="rotate(90 667.592 558.731)scale(.29887)"/>
  <path d="M892.002 747.027c0 11.625 3.384 22.449 9.24 31.565 10.613 16.515 29.34 27.44 50.758 27.44h64.867v-9.195h-58.73c-17.72 0-33.483-7.094-43.844-18.245-7.971-8.58-12.743-19.566-12.743-31.565 0-12.528 5.2-23.947 13.815-32.681 10.36-10.503 25.655-17.122 42.772-17.122h58.73v-9.195H952c-20.928 0-39.29 10.43-50.019 26.317-6.311 9.344-9.979 20.575-9.979 32.681" style="display:inline;fill:#253956;stroke-width:3.77953" transform="rotate(90 667.592 558.731)scale(.29887)"/>
  <path d="M984.551 751.621h150.895v-9.188H984.552z" style="display:inline;fill:#83b75b;stroke-width:12.8283" transform="rotate(90 667.592 558.731)scale(.29887)"/>
</svg>
